<mxfile host="app.diagrams.net" modified="2024-05-15T10:17:06.300Z" agent="Mozilla/5.0 (Windows NT 10.0; Win64; x64) AppleWebKit/537.36 (KHTML, like Gecko) Chrome/123.0.0.0 Safari/537.36" etag="5DDktWVX4o_4QxetIzY9" version="24.4.0" type="device">
  <diagram name="第 1 页" id="xUMMlilaVL1AyTOmBoW_">
    <mxGraphModel dx="842" dy="523" grid="1" gridSize="10" guides="1" tooltips="1" connect="1" arrows="1" fold="1" page="1" pageScale="1" pageWidth="827" pageHeight="1169" math="0" shadow="0">
      <root>
        <mxCell id="0" />
        <mxCell id="1" parent="0" />
        <mxCell id="26tpBzkdeQCw1SA_y6ue-1" value="&lt;font style=&quot;font-size: 15px;&quot;&gt;&lt;b&gt;Prompt&lt;/b&gt;&lt;/font&gt;" style="ellipse;shape=cloud;whiteSpace=wrap;html=1;fillColor=#dae8fc;strokeColor=#6c8ebf;" vertex="1" parent="1">
          <mxGeometry x="160" y="250" width="120" height="80" as="geometry" />
        </mxCell>
        <mxCell id="26tpBzkdeQCw1SA_y6ue-2" value="" style="shape=flexArrow;endArrow=classic;html=1;rounded=0;" edge="1" parent="1" source="26tpBzkdeQCw1SA_y6ue-1" target="26tpBzkdeQCw1SA_y6ue-3">
          <mxGeometry width="50" height="50" relative="1" as="geometry">
            <mxPoint x="390" y="460" as="sourcePoint" />
            <mxPoint x="340" y="290" as="targetPoint" />
          </mxGeometry>
        </mxCell>
        <mxCell id="26tpBzkdeQCw1SA_y6ue-3" value="&lt;font style=&quot;font-size: 15px;&quot;&gt;&lt;b&gt;Agent&lt;/b&gt;&lt;/font&gt;" style="rounded=1;whiteSpace=wrap;html=1;fillColor=#f8cecc;strokeColor=#b85450;" vertex="1" parent="1">
          <mxGeometry x="354" y="260" width="120" height="60" as="geometry" />
        </mxCell>
        <mxCell id="26tpBzkdeQCw1SA_y6ue-4" value="&lt;b&gt;&lt;font style=&quot;font-size: 13px;&quot;&gt;Environment&lt;/font&gt;&lt;/b&gt;" style="ellipse;whiteSpace=wrap;html=1;fillColor=#ffe6cc;strokeColor=#d79b00;" vertex="1" parent="1">
          <mxGeometry x="354" y="50" width="120" height="80" as="geometry" />
        </mxCell>
        <mxCell id="26tpBzkdeQCw1SA_y6ue-6" value="" style="shape=flexArrow;endArrow=classic;html=1;rounded=0;" edge="1" parent="1" source="26tpBzkdeQCw1SA_y6ue-3" target="26tpBzkdeQCw1SA_y6ue-7">
          <mxGeometry width="50" height="50" relative="1" as="geometry">
            <mxPoint x="500" y="289.5" as="sourcePoint" />
            <mxPoint x="530" y="290" as="targetPoint" />
          </mxGeometry>
        </mxCell>
        <mxCell id="26tpBzkdeQCw1SA_y6ue-7" value="&lt;b&gt;&lt;font style=&quot;font-size: 14px;&quot;&gt;Answer&lt;/font&gt;&lt;/b&gt;" style="ellipse;shape=cloud;whiteSpace=wrap;html=1;fillColor=#d5e8d4;strokeColor=#82b366;" vertex="1" parent="1">
          <mxGeometry x="540" y="250" width="120" height="80" as="geometry" />
        </mxCell>
        <mxCell id="26tpBzkdeQCw1SA_y6ue-8" value="LLM as&lt;div&gt;individuals&lt;/div&gt;&lt;div&gt;involved&lt;/div&gt;" style="shape=umlActor;verticalLabelPosition=bottom;verticalAlign=top;html=1;outlineConnect=0;" vertex="1" parent="1">
          <mxGeometry x="260" y="90" width="30" height="60" as="geometry" />
        </mxCell>
        <mxCell id="26tpBzkdeQCw1SA_y6ue-10" value="" style="endArrow=none;dashed=1;html=1;dashPattern=1 3;strokeWidth=2;rounded=0;" edge="1" parent="1" source="26tpBzkdeQCw1SA_y6ue-8" target="26tpBzkdeQCw1SA_y6ue-4">
          <mxGeometry width="50" height="50" relative="1" as="geometry">
            <mxPoint x="390" y="410" as="sourcePoint" />
            <mxPoint x="440" y="360" as="targetPoint" />
          </mxGeometry>
        </mxCell>
        <mxCell id="26tpBzkdeQCw1SA_y6ue-11" value="" style="shape=flexArrow;endArrow=classic;html=1;rounded=0;exitX=0.075;exitY=-0.039;exitDx=0;exitDy=0;entryX=0.231;entryY=0.896;entryDx=0;entryDy=0;entryPerimeter=0;exitPerimeter=0;" edge="1" parent="1" source="26tpBzkdeQCw1SA_y6ue-3" target="26tpBzkdeQCw1SA_y6ue-4">
          <mxGeometry width="50" height="50" relative="1" as="geometry">
            <mxPoint x="390" y="410" as="sourcePoint" />
            <mxPoint x="440" y="360" as="targetPoint" />
            <Array as="points">
              <mxPoint x="330" y="190" />
            </Array>
          </mxGeometry>
        </mxCell>
        <mxCell id="26tpBzkdeQCw1SA_y6ue-12" value="&lt;b&gt;&lt;font style=&quot;font-size: 12px;&quot;&gt;Answer&lt;/font&gt;&lt;/b&gt;" style="edgeLabel;html=1;align=center;verticalAlign=middle;resizable=0;points=[];" vertex="1" connectable="0" parent="26tpBzkdeQCw1SA_y6ue-11">
          <mxGeometry x="0.0624" y="-1" relative="1" as="geometry">
            <mxPoint y="-1" as="offset" />
          </mxGeometry>
        </mxCell>
        <mxCell id="26tpBzkdeQCw1SA_y6ue-15" value="" style="shape=flexArrow;endArrow=classic;html=1;rounded=0;exitX=0.5;exitY=1;exitDx=0;exitDy=0;entryX=0.5;entryY=0;entryDx=0;entryDy=0;" edge="1" parent="1" source="26tpBzkdeQCw1SA_y6ue-4" target="26tpBzkdeQCw1SA_y6ue-3">
          <mxGeometry width="50" height="50" relative="1" as="geometry">
            <mxPoint x="550" y="303" as="sourcePoint" />
            <mxPoint x="578" y="150" as="targetPoint" />
          </mxGeometry>
        </mxCell>
        <mxCell id="26tpBzkdeQCw1SA_y6ue-16" value="&lt;b&gt;&lt;font style=&quot;font-size: 12px;&quot;&gt;Modified&lt;/font&gt;&lt;/b&gt;&lt;div&gt;&lt;b&gt;&lt;font style=&quot;font-size: 12px;&quot;&gt;Answer&lt;/font&gt;&lt;/b&gt;&lt;/div&gt;" style="edgeLabel;html=1;align=center;verticalAlign=middle;resizable=0;points=[];" vertex="1" connectable="0" parent="26tpBzkdeQCw1SA_y6ue-15">
          <mxGeometry x="0.0624" y="-1" relative="1" as="geometry">
            <mxPoint y="-1" as="offset" />
          </mxGeometry>
        </mxCell>
        <mxCell id="26tpBzkdeQCw1SA_y6ue-17" value="" style="endArrow=none;dashed=1;html=1;dashPattern=1 3;strokeWidth=2;rounded=0;entryX=0.686;entryY=1.013;entryDx=0;entryDy=0;exitX=0.947;exitY=0.028;exitDx=0;exitDy=0;exitPerimeter=0;entryPerimeter=0;" edge="1" parent="1" source="26tpBzkdeQCw1SA_y6ue-3" target="26tpBzkdeQCw1SA_y6ue-4">
          <mxGeometry width="50" height="50" relative="1" as="geometry">
            <mxPoint x="390" y="410" as="sourcePoint" />
            <mxPoint x="440" y="360" as="targetPoint" />
            <Array as="points">
              <mxPoint x="490" y="180" />
            </Array>
          </mxGeometry>
        </mxCell>
        <mxCell id="26tpBzkdeQCw1SA_y6ue-18" value="&lt;b&gt;&lt;font style=&quot;font-size: 13px;&quot;&gt;Intervention&lt;/font&gt;&lt;/b&gt;" style="edgeLabel;html=1;align=center;verticalAlign=middle;resizable=0;points=[];" vertex="1" connectable="0" parent="26tpBzkdeQCw1SA_y6ue-17">
          <mxGeometry x="-0.1179" relative="1" as="geometry">
            <mxPoint x="14" y="-5" as="offset" />
          </mxGeometry>
        </mxCell>
        <mxCell id="26tpBzkdeQCw1SA_y6ue-20" value="&lt;font style=&quot;font-size: 15px;&quot;&gt;&lt;b&gt;Prompt&lt;/b&gt;&lt;/font&gt;" style="ellipse;shape=cloud;whiteSpace=wrap;html=1;fillColor=#dae8fc;strokeColor=#6c8ebf;" vertex="1" parent="1">
          <mxGeometry x="354" y="430" width="120" height="80" as="geometry" />
        </mxCell>
        <mxCell id="26tpBzkdeQCw1SA_y6ue-21" value="" style="shape=flexArrow;endArrow=classic;html=1;rounded=0;entryX=0.75;entryY=0.1;entryDx=0;entryDy=0;entryPerimeter=0;" edge="1" parent="1" source="26tpBzkdeQCw1SA_y6ue-20" target="26tpBzkdeQCw1SA_y6ue-22">
          <mxGeometry width="50" height="50" relative="1" as="geometry">
            <mxPoint x="390" y="710" as="sourcePoint" />
            <mxPoint x="570" y="590" as="targetPoint" />
            <Array as="points">
              <mxPoint x="570" y="470" />
            </Array>
          </mxGeometry>
        </mxCell>
        <mxCell id="26tpBzkdeQCw1SA_y6ue-22" value="Social group involved&lt;div&gt;&lt;br&gt;&lt;/div&gt;" style="shape=umlActor;verticalLabelPosition=bottom;verticalAlign=top;html=1;outlineConnect=0;" vertex="1" parent="1">
          <mxGeometry x="550" y="600" width="30" height="60" as="geometry" />
        </mxCell>
        <mxCell id="26tpBzkdeQCw1SA_y6ue-25" value="Social group involved&lt;div&gt;&lt;br&gt;&lt;/div&gt;" style="shape=umlActor;verticalLabelPosition=bottom;verticalAlign=top;html=1;outlineConnect=0;" vertex="1" parent="1">
          <mxGeometry x="240" y="610" width="30" height="60" as="geometry" />
        </mxCell>
        <mxCell id="26tpBzkdeQCw1SA_y6ue-26" value="" style="shape=flexArrow;endArrow=classic;html=1;rounded=0;" edge="1" parent="1" source="26tpBzkdeQCw1SA_y6ue-20" target="26tpBzkdeQCw1SA_y6ue-25">
          <mxGeometry width="50" height="50" relative="1" as="geometry">
            <mxPoint x="463" y="510" as="sourcePoint" />
            <mxPoint x="580" y="600" as="targetPoint" />
            <Array as="points">
              <mxPoint x="255" y="470" />
            </Array>
          </mxGeometry>
        </mxCell>
      </root>
    </mxGraphModel>
  </diagram>
</mxfile>
